<!DOCTYPE svg PUBLIC "-//W3C//DTD SVG 1.1//EN" "http://www.w3.org/Graphics/SVG/1.1/DTD/svg11.dtd">
<!-- Uploaded to: SVG Repo, www.svgrepo.com, Transformed by: SVG Repo Mixer Tools -->
<svg fill="#ffffff" height="800px" width="800px" version="1.1" id="Layer_1" xmlns="http://www.w3.org/2000/svg" xmlns:xlink="http://www.w3.org/1999/xlink" viewBox="0 0 512 512" xml:space="preserve" stroke="#ffffff" stroke-width="0.00512">
<g id="SVGRepo_bgCarrier" stroke-width="0"/>
<g id="SVGRepo_tracerCarrier" stroke-linecap="round" stroke-linejoin="round"/>
<g id="SVGRepo_iconCarrier"> <g> <g> <circle cx="323.164" cy="218.49" r="8.121"/> </g> </g> <g> <g> <path d="M511.96,132.13l-0.567-13.489l-13.337-2.102c-3.455-0.544-34.364-4.792-54.983,13.593 c-15.355,13.691-18.888,34.474-19.633,45.643c-11.802,12.816-21.439,26.604-28.871,41.315l-5.046-4.335 c-3.113-2.674-6.069-8.33-9.2-14.317c-8.802-16.834-22.105-42.274-62.05-42.274c-7.121,0-13.89,1.175-20.221,3.443 c-12.349-26.625-30.837-40.966-47.621-53.965c-17.298-13.397-33.636-26.052-45.329-52.229l-12.323-27.591l-16.53,25.296 c-0.854,1.307-18.649,28.793-31.625,67.833c-23.315-8.548-46.534-18.108-67.194-31.459L58.032,74.955l-5.551,22.421 c-0.308,1.244-7.445,30.866,0.975,65.949c3.084,12.85,8.531,27.416,17.934,41.776c1.288,10.677,5.677,38.767,18.488,67.135 c8.131,18.005,18.167,32.911,29.904,44.618c-31.489,2.4-68.995,2.298-90.053-7.256L0,296.111l6.791,31.931 c8.192,38.518,23.803,71.337,46.4,97.544c20.613,23.908,46.981,41.751,76.253,51.601c17.958,6.044,36.525,8.991,54.943,8.99 c40.164-0.001,79.6-14.024,110.331-40.548c38.475-33.207,50.611-85.926,61.319-132.438c7.553-32.809,14.7-63.85,28.728-72.417 c-5.878,17.891-8.877,36.947-8.953,57.088l32.971,0.124c0.076-20.209,3.695-39.159,10.755-56.325 c6.174-15.013,15.18-29.143,26.817-42.094c0.797,0.022,1.628,0.036,2.498,0.036c11.725,0,29.756-2.296,43.328-14.399 C512.801,166.815,512.108,135.626,511.96,132.13z M190.493,93.638c12.515,16.979,26.732,27.991,39.749,38.073 c17.407,13.481,31.761,24.615,40.493,47.858c-1.508,1.876-2.953,3.855-4.33,5.943c-1.343-1.907-2.77-3.833-4.294-5.781 c-18.788-24.008-51.16-37.066-86.421-49.686C180.316,116.028,185.688,103.573,190.493,93.638z M323.906,305.793 c-9.573,41.585-20.424,88.718-50.731,114.875c-36.041,31.109-87.087,40.79-133.214,25.268 c-23.673-7.966-45.042-22.449-61.798-41.882c-13.518-15.678-24.093-34.375-31.595-55.812c18.307,2.967,40.65,3.672,66.835,2.095 c24.898-1.5,45.898-4.639,53.816-5.926c9.186,2.417,18.896,3.644,29.095,3.644v-32.971c-33.562,0-59.154-18.745-76.066-55.714 c-1.913-4.184-3.606-8.382-5.114-12.516c10.013,6.139,21.512,11.703,34.776,16.404l11.015-31.077 c-40.901-14.498-66.175-39.858-75.119-75.376c-2.618-10.396-3.449-20.276-3.469-28.552c23.725,12.124,48.732,20.965,71.456,29.002 c34.743,12.285,67.561,23.89,82.353,42.792c22.955,29.33,16.027,46.398,2.229,80.403c-1.502,3.703-3.047,7.51-4.592,11.445 l30.692,12.048c1.498-3.816,2.996-7.505,4.452-11.095c8.465-20.859,16.648-41.036,14.814-63.183 c0.879-4.297,2.933-12.487,7.038-20.561c10.152-19.971,23.206-19.971,27.496-19.971c19.98,0,24.818,9.252,32.833,24.58 c1.503,2.874,3.022,5.781,4.684,8.633C338.879,240.749,331.819,271.417,323.906,305.793z M470.237,160.595 c-3.029,2.701-7.292,4.256-11.631,5.105c1.33-4.182,3.358-8.236,6.411-10.96c3.025-2.697,7.28-4.251,11.611-5.101 C475.291,153.849,473.261,157.898,470.237,160.595z"/> </g> </g> </g>
</svg>