<?xml version="1.0" encoding="utf-8"?>
<!-- Generator: Adobe Illustrator 27.4.1, SVG Export Plug-In . SVG Version: 6.00 Build 0)  -->
<svg version="1.1" id="Capa_1" xmlns="http://www.w3.org/2000/svg" xmlns:xlink="http://www.w3.org/1999/xlink" x="0px" y="0px"
	 viewBox="0 0 800 800" style="enable-background:new 0 0 800 800;" xml:space="preserve">
<style type="text/css">
	.st0{fill:#E5E5E5;}
</style>
<g>
	<path class="st0" d="M505.2,356.1c25.6,0,49.5-15.3,67.4-43.1c17.5-27.3,27.2-63.5,27.2-101.9s-9.6-74.6-27.2-101.9
		C554.7,81.3,530.8,66,505.2,66c-25.6,0-49.5,15.3-67.4,43.1c-17.5,27.3-27.1,63.5-27.1,101.9s9.6,74.6,27.1,101.9
		C455.7,340.8,479.7,356.1,505.2,356.1z M489,142c7.3-11.4,14.2-15.2,16.2-15.2c2,0,8.9,3.8,16.2,15.2
		c11.1,17.3,17.5,42.5,17.5,69.1c0,26.5-6.4,51.7-17.5,69.1c-7.3,11.4-14.2,15.2-16.2,15.2c-2,0-8.9-3.8-16.2-15.2
		c-11.1-17.3-17.5-42.5-17.5-69.1S477.9,159.3,489,142z"/>
	<path class="st0" d="M725.1,332.5c-3.7-26.8-16.3-46.5-35.4-55.3c-7-3.2-14.6-4.9-22.6-4.9c-17.6,0-36.2,7.6-53.8,22
		c-17.7,14.5-32.8,34.5-43.6,57.9c-13.1,28.5-18.4,58.6-14.7,84.7c3.7,26.8,16.3,46.5,35.4,55.3c7,3.2,14.6,4.9,22.6,4.9
		c17.6,0,36.2-7.6,53.8-22c17.7-14.5,32.8-34.5,43.6-57.9C723.5,388.8,728.7,358.7,725.1,332.5z M655.2,391.8
		c-6.9,14.9-16.4,27.8-26.9,36.3c-5.1,4.1-9.1,6.2-11.6,7.3c-0.8-2.5-1.8-6.5-2-12.4c-0.5-13.8,3.1-29.8,10.2-45.2
		c6.9-14.9,16.4-27.8,26.9-36.3c5.1-4.1,9.1-6.2,11.6-7.3c0.8,2.5,1.8,6.5,2,12.4C665.9,360.4,662.3,376.4,655.2,391.8z"/>
	<path class="st0" d="M209.6,492.4c19.1-8.8,31.7-28.4,35.4-55.3c3.6-26.2-1.6-56.3-14.7-84.7c-10.8-23.4-25.9-43.4-43.6-57.9
		c-17.6-14.4-36.2-22-53.8-22c-8,0-15.6,1.6-22.6,4.9c-19.1,8.8-31.7,28.4-35.4,55.3c-3.6,26.2,1.6,56.3,14.7,84.7
		c10.8,23.4,25.9,43.4,43.6,57.9c17.6,14.4,36.2,22,53.8,22C195,497.2,202.6,495.6,209.6,492.4z M175.1,377.8
		c7.1,15.4,10.7,31.4,10.2,45.1c-0.2,5.9-1.1,9.9-2,12.4c-2.6-1-6.6-3.1-11.6-7.3c-10.5-8.6-20-21.5-26.9-36.3
		c-7.1-15.4-10.7-31.4-10.2-45.1c0.2-5.9,1.1-9.9,2-12.4c2.6,1,6.6,3.1,11.6,7.3C158.7,350,168.3,362.9,175.1,377.8z"/>
	<path class="st0" d="M294.7,356.1c25.6,0,49.5-15.3,67.4-43.1c17.5-27.3,27.1-63.5,27.1-101.9c0-38.4-9.6-74.6-27.1-101.9
		C344.2,81.3,320.3,66,294.7,66c-25.6,0-49.5,15.3-67.4,43.1c-17.5,27.3-27.1,63.5-27.1,101.9c0,38.4,9.6,74.6,27.1,101.9
		C245.2,340.8,269.2,356.1,294.7,356.1z M310.9,280.1c-7.3,11.4-14.2,15.2-16.2,15.2c-2,0-8.9-3.8-16.2-15.2
		C267.4,262.8,261,237.6,261,211s6.4-51.7,17.5-69.1c7.3-11.4,14.2-15.2,16.2-15.2c2,0,8.9,3.8,16.2,15.2
		c11.1,17.3,17.5,42.5,17.5,69.1S322.1,262.8,310.9,280.1z"/>
	<path class="st0" d="M599.8,563.9L599.8,563.9c-9.2-14.4-57.2-88.3-97.3-127c-31.5-30.2-81.4-30.6-83.5-30.6l-14.8,0
		c-2,0-49.9,0.3-83.4,30.5c-45.4,40.9-96.5,125.4-98.6,128.9c-28.2,44.5-41.5,68.1-41.5,93.2c0,23.9,8.7,43.5,25.2,56.5
		c15.2,12,36.7,18.4,62.1,18.4h1.3c19.9,0,34.2,0,69.1-18.1l0.5-0.2l0.4-0.3c0.2-0.2,19.9-17.7,64.9-17.7c2.4,0,4.8,0,7.2,0.1l0.2,0
		l0.2,0c2.4-0.1,4.9-0.1,7.3-0.1c44.5,0,64.2,17.2,64.3,17.4l0.4,0.4l0.5,0.2c35.3,18.4,49.5,18.4,70.9,18.4
		c25.4,0,46.9-6.4,62.1-18.4c16.5-13.1,25.2-32.6,25.2-56.5c0-25.2-13.3-48.9-41.5-93.2L599.8,563.9z M581.6,659
		c0,7.1-1.7,8.5-2.2,8.9c-1.1,0.9-7.5,5.3-24.3,5.3c-8.8,0-13.3,0-17.5-1c-5.1-1.1-12.1-3.9-21.3-8.5c-7.1-5-15.2-9.5-24.1-13.2
		c-21.5-9.1-46.1-13.7-73.2-13.7c-2.4,0-4.9,0-7.4,0.1c-2.5-0.1-5-0.1-7.4-0.1c-27.3,0-52.2,4.7-73.8,13.9
		c-8.9,3.8-17.1,8.3-24.1,13.3c-8.9,4.4-15.6,7.1-20.6,8.2c-3.8,0.9-7.5,0.9-16.3,0.9h-1.3c-16.8,0-23.2-4.4-24.3-5.3
		c-0.5-0.4-2.2-1.7-2.2-8.9c0-10.2,18.5-39.4,32-60.7l0.7-1.1c13.4-22.2,55.1-86.2,87.2-115.2c13-11.7,35.5-14.7,43-14.9H419l0.3,0
		c9.2,0.3,31.1,4,41.1,13.6c30,28.9,70.1,87.4,89.1,117.3l0.1,0.2C561.6,617.2,581.6,648.7,581.6,659z"/>
</g>
</svg>
