<?xml version="1.0" encoding="utf-8"?>
<!-- Generator: Adobe Illustrator 27.4.1, SVG Export Plug-In . SVG Version: 6.00 Build 0)  -->
<svg version="1.1" id="Layer_1" xmlns="http://www.w3.org/2000/svg" xmlns:xlink="http://www.w3.org/1999/xlink" x="0px" y="0px"
	 viewBox="0 0 800 800" style="enable-background:new 0 0 800 800;" xml:space="preserve">
<style type="text/css">
	.st0{fill:#E5E5E5;}
</style>
<path class="st0" d="M633.3,200H166.7c-55.1,0-100,44.9-100,100v333.3c0,55.1,44.9,100,100,100h466.7c55.1,0,100-44.9,100-100V300
	C733.3,244.9,688.5,200,633.3,200z M633.3,266.7c6.1,0,11.8,1.6,16.7,4.5c-1.1,0.7-2.2,1.4-3.3,2.2L440,428.3
	c-23.6,17.7-56.4,17.7-80,0l-206.7-155c-1.1-0.8-2.2-1.5-3.3-2.2c4.9-2.8,10.6-4.5,16.7-4.5H633.3z M633.3,666.7H166.7
	c-18.4,0-33.3-15-33.3-33.3V341.7l186.7,140c23.3,17.4,50.9,26.7,80,26.7s56.7-9.2,80-26.7l186.7-140v291.7
	C666.7,651.7,651.7,666.7,633.3,666.7z"/>
</svg>
