<svg id="visual" viewBox="0 0 900 600" width="900" height="600" xmlns="http://www.w3.org/2000/svg" xmlns:xlink="http://www.w3.org/1999/xlink" version="1.1"><rect x="0" y="0" width="900" height="600" fill="#90c4b0"></rect><path d="M0 249L15 239.3C30 229.7 60 210.3 90 221C120 231.7 150 272.3 180 280C210 287.7 240 262.3 270 246.7C300 231 330 225 360 227.5C390 230 420 241 450 240.7C480 240.3 510 228.7 540 234.8C570 241 600 265 630 259C660 253 690 217 720 224C750 231 780 281 810 307.7C840 334.3 870 337.7 885 339.3L900 341L900 601L885 601C870 601 840 601 810 601C780 601 750 601 720 601C690 601 660 601 630 601C600 601 570 601 540 601C510 601 480 601 450 601C420 601 390 601 360 601C330 601 300 601 270 601C240 601 210 601 180 601C150 601 120 601 90 601C60 601 30 601 15 601L0 601Z" fill="#76a392"></path><path d="M0 402L15 394.5C30 387 60 372 90 359.7C120 347.3 150 337.7 180 331.7C210 325.7 240 323.3 270 334.8C300 346.3 330 371.7 360 367.2C390 362.7 420 328.3 450 322.3C480 316.3 510 338.7 540 342.2C570 345.7 600 330.3 630 339C660 347.7 690 380.3 720 384.8C750 389.3 780 365.7 810 344C840 322.3 870 302.7 885 292.8L900 283L900 601L885 601C870 601 840 601 810 601C780 601 750 601 720 601C690 601 660 601 630 601C600 601 570 601 540 601C510 601 480 601 450 601C420 601 390 601 360 601C330 601 300 601 270 601C240 601 210 601 180 601C150 601 120 601 90 601C60 601 30 601 15 601L0 601Z" fill="#5b8274"></path><path d="M0 475L15 467C30 459 60 443 90 433.2C120 423.3 150 419.7 180 408.8C210 398 240 380 270 388.8C300 397.7 330 433.3 360 435.2C390 437 420 405 450 400.2C480 395.3 510 417.7 540 430.5C570 443.3 600 446.7 630 443.2C660 439.7 690 429.3 720 436C750 442.7 780 466.3 810 469.5C840 472.7 870 455.3 885 446.7L900 438L900 601L885 601C870 601 840 601 810 601C780 601 750 601 720 601C690 601 660 601 630 601C600 601 570 601 540 601C510 601 480 601 450 601C420 601 390 601 360 601C330 601 300 601 270 601C240 601 210 601 180 601C150 601 120 601 90 601C60 601 30 601 15 601L0 601Z" fill="#416258"></path><path d="M0 468L15 468.5C30 469 60 470 90 480.3C120 490.7 150 510.3 180 519C210 527.7 240 525.3 270 530.2C300 535 330 547 360 543.7C390 540.3 420 521.7 450 515.8C480 510 510 517 540 508.3C570 499.7 600 475.3 630 463.2C660 451 690 451 720 463.8C750 476.7 780 502.3 810 504.8C840 507.3 870 486.7 885 476.3L900 466L900 601L885 601C870 601 840 601 810 601C780 601 750 601 720 601C690 601 660 601 630 601C600 601 570 601 540 601C510 601 480 601 450 601C420 601 390 601 360 601C330 601 300 601 270 601C240 601 210 601 180 601C150 601 120 601 90 601C60 601 30 601 15 601L0 601Z" fill="#29443d"></path></svg>