<?xml version="1.0" encoding="utf-8"?>
<!-- Generator: Adobe Illustrator 27.4.1, SVG Export Plug-In . SVG Version: 6.00 Build 0)  -->
<svg version="1.1" id="Layer_1" xmlns="http://www.w3.org/2000/svg" xmlns:xlink="http://www.w3.org/1999/xlink" x="0px" y="0px"
	 viewBox="0 0 800 800" style="enable-background:new 0 0 800 800;" xml:space="preserve">
<style type="text/css">
	.st0{fill-rule:evenodd;clip-rule:evenodd;fill:#E5E5E5;}
</style>
<path class="st0" d="M420.5,40.4c-12-9.4-28.9-9.4-40.9,0l-300,233.3c-8.1,6.3-12.9,16-12.9,26.3v366.7c0,36.8,29.8,66.7,66.7,66.7
	h533.3c36.8,0,66.7-29.8,66.7-66.7V300c0-10.3-4.8-20-12.9-26.3L420.5,40.4z M533.3,666.7h133.3V316.3L400,108.9L133.3,316.3v350.4
	h133.3V400c0-18.4,14.9-33.3,33.3-33.3h200c18.4,0,33.3,14.9,33.3,33.3V666.7z M333.3,666.7V433.3h133.3v233.3H333.3z"/>
</svg>
