<?xml version="1.0" encoding="utf-8"?>
<!-- Generator: Adobe Illustrator 27.4.1, SVG Export Plug-In . SVG Version: 6.00 Build 0)  -->
<svg version="1.1" id="Layer_1" xmlns="http://www.w3.org/2000/svg" xmlns:xlink="http://www.w3.org/1999/xlink" x="0px" y="0px"
	 viewBox="0 0 800 800" style="enable-background:new 0 0 800 800;" xml:space="preserve">
<style type="text/css">
	.st0{fill:#E5E5E5;}
</style>
<path class="st0" d="M562.3,407.9H418.5v-36.6c51.7-6.8,99.6-31.6,135.3-70.2c38.4-41.5,59.5-95.5,59.5-151.9
	c0-16.1-13.1-29.3-29.3-29.3c-63.5,0-123,26.5-165.5,73.2V94.3c0-16.1-13.1-29.3-29.3-29.3C373.1,65,360,78.1,360,94.3V120
	c-32.7-29.7-74.5-46-119-46c-16.1,0-29.3,13.1-29.3,29.3c0,44,16.3,86.2,45.8,118.8c26.9,29.7,63.1,49.6,102.3,56.1v129.7H216
	c-11,0-21,6.1-26,15.8c-5,9.9-4.2,21.5,2.1,30.2c51.5,73.4,71.4,152.6,62.5,249c-0.6,6.1,1,15.8,7.6,23.1c3.7,4.1,10.4,9,21.5,9h211
	c11.3,0,18.1-4.9,21.8-8.9c6.4-7.1,7.9-16.9,7.3-23c-8.9-96.6,10.9-175.8,62.5-249.1c6.2-8.9,7-20.5,2-30.3
	C583.3,414.1,573.1,407.9,562.3,407.9z M275.3,137.6c37.9,11.5,67.9,41.6,79.4,79.5C316.9,205.5,286.8,175.5,275.3,137.6z
	 M551.4,181.7c-13,64.8-65,116.9-129.9,129.9C434.6,246.7,486.6,194.7,551.4,181.7z M463.5,676.6H314.7c1.4-40.7-2-78.2-10.3-114.3
	c-7.8-33.6-19.6-65-36.1-95.8h241.5c-16.5,30.8-28.3,62.2-36.1,95.8C465.4,598.4,462,635.9,463.5,676.6z"/>
</svg>
