<svg width="113" height="25" viewBox="0 0 113 25" fill="none" xmlns="http://www.w3.org/2000/svg">
<g clip-path="url(#clip0_129_2)">
<path d="M21.35 0.800049C20.85 0.800049 20.47 1.01005 20.22 1.43005L11.49 14.82L2.72 1.43005C2.46 1.01005 2.1 0.800049 1.64 0.800049C1 0.800049 0.690002 1.12005 0.690002 1.75005V23.0401C0.690002 23.6801 1.01 23.99 1.64 23.99C2.27 23.99 2.58 23.6701 2.58 23.0401V4.62005L10.37 16.5C10.63 16.91 10.98 17.1101 11.41 17.1101C11.9 17.1101 12.28 16.91 12.54 16.5L20.3 4.68005V23.05C20.3 23.69 20.62 24 21.25 24C21.88 24 22.19 23.68 22.19 23.05V1.75005C22.19 1.11005 21.91 0.800049 21.34 0.800049H21.35Z" fill="white"/>
<path d="M112.21 22.65L103.28 1.54005C103.08 1.06005 102.73 0.810049 102.24 0.800049H102.13C101.61 0.800049 101.26 1.05005 101.07 1.54005L95.02 15.85H87.5C88.33 14.82 88.74 9.95005 88.74 8.14005V7.06005C88.74 5.01005 88.21 3.45005 87.16 2.40005C86.12 1.34005 84.57 0.820049 82.52 0.820049H74.1C73.46 0.820049 73.15 1.14005 73.15 5.22005V15.87H65.89L59.84 1.56005C59.64 1.08005 59.29 0.830049 58.8 0.820049H58.69C58.17 0.820049 57.82 1.07005 57.63 1.56005L51.58 15.87H43.78L37.73 1.56005C37.53 1.08005 37.18 0.830049 36.69 0.820049H36.58C36.06 0.820049 35.71 1.07005 35.52 1.56005L26.59 22.67C26.36 23.26 26.54 23.68 27.11 23.93C27.7 24.17 28.11 24 28.35 23.43L30.74 17.76H42.53L44.92 23.43C45.15 24.01 45.56 24.17 46.14 23.93C46.72 23.68 46.88 23.26 46.64 22.67L44.56 17.76H50.76L48.68 22.67C48.45 23.26 48.63 23.68 49.2 23.93C49.79 24.17 50.2 24 50.44 23.43L52.83 17.76H64.62L67.01 23.43C67.24 24.01 67.65 24.17 68.23 23.93C68.81 23.68 68.97 23.26 68.73 22.67L66.65 17.76H73.11V23.1101C73.11 23.8301 73.43 24.0201 74.06 24.0201C74.69 24.0201 75 23.7 75 23.07V17.82H81.61L87.51 23.7701C87.68 24.0201 87.87 24.17 88.09 24.22C88.31 24.27 88.55 24.22 88.81 24.06C89.35 23.75 89.45 23.32 89.12 22.76L83.82 17.76H94.2L92.12 22.67C91.89 23.26 92.07 23.68 92.64 23.93C93.23 24.17 93.64 24 93.88 23.43L96.27 17.76H108.06L110.45 23.43C110.68 24.01 111.09 24.17 111.67 23.93C112.25 23.68 112.41 23.26 112.17 22.67L112.21 22.65ZM33.16 15.85H31.5L36.61 3.79005L41.72 15.85H33.15H33.16ZM53.62 15.85L58.73 3.79005L63.84 15.85H53.62ZM75.03 2.69005H82.52C84.03 2.69005 85.13 3.04005 85.81 3.73005C86.51 4.41005 86.85 5.52005 86.85 7.04005V8.12005C86.85 9.63005 86.5 14.18 85.81 14.88C85.29 15.4 84.54 15.72 83.55 15.84H75.02V2.69005H75.03ZM104.08 15.85H97.08L102.19 3.79005L107.3 15.85H104.08Z" fill="white"/>
</g>
<defs>
<clipPath id="clip0_129_2">
<rect width="113" height="25" fill="white"/>
</clipPath>
</defs>
</svg>
