<svg width="113" height="25" viewBox="0 0 113 25" fill="none" xmlns="http://www.w3.org/2000/svg">
<path d="M1.32 24C0.684 24 0.366 23.682 0.366 23.046V1.752C0.366 1.116 0.684 0.797999 1.32 0.797999C1.776 0.797999 2.136 1.008 2.4 1.428L11.364 15.126L10.932 15.18L19.896 1.428C20.148 1.008 20.526 0.797999 21.03 0.797999C21.594 0.797999 21.876 1.116 21.876 1.752V23.046C21.876 23.682 21.564 24 20.94 24C20.304 24 19.986 23.682 19.986 23.046V3.642L20.544 3.822L12.228 16.494C11.964 16.902 11.586 17.106 11.094 17.106C10.662 17.106 10.314 16.902 10.05 16.494L1.734 3.822L2.256 4.02V23.046C2.256 23.682 1.944 24 1.32 24ZM26.7785 23.91C26.2025 23.658 26.0285 23.238 26.2565 22.65L35.1845 1.536C35.3765 1.044 35.7305 0.797999 36.2465 0.797999H36.3545C36.8465 0.809999 37.1945 1.056 37.3985 1.536L46.3265 22.65C46.5665 23.238 46.3985 23.658 45.8225 23.91C45.2345 24.15 44.8265 23.982 44.5985 23.406L42.2045 17.736H30.4145L28.0205 23.406C27.7805 23.982 27.3665 24.15 26.7785 23.91ZM31.1885 15.846H41.4125L36.3005 3.786L31.1885 15.846ZM48.8918 23.91C48.3158 23.658 48.1418 23.238 48.3698 22.65L57.2978 1.536C57.4898 1.044 57.8438 0.797999 58.3598 0.797999H58.4678C58.9598 0.809999 59.3078 1.056 59.5118 1.536L68.4398 22.65C68.6798 23.238 68.5118 23.658 67.9358 23.91C67.3478 24.15 66.9398 23.982 66.7118 23.406L64.3178 17.736H52.5278L50.1338 23.406C49.8938 23.982 49.4798 24.15 48.8918 23.91ZM53.3018 15.846H63.5258L58.4138 3.786L53.3018 15.846ZM88.519 24.036C88.255 24.192 88.015 24.246 87.799 24.198C87.583 24.15 87.391 24 87.223 23.748L81.319 14.352H74.713V23.046C74.713 23.682 74.401 24 73.777 24C73.141 24 72.823 23.682 72.823 23.046V1.752C72.823 1.116 73.141 0.797999 73.777 0.797999H82.201C84.253 0.797999 85.801 1.326 86.845 2.382C87.901 3.438 88.429 4.992 88.429 7.044V8.124C88.429 9.936 88.015 11.358 87.187 12.39C86.359 13.422 85.135 14.052 83.515 14.28L88.825 22.74C89.161 23.292 89.059 23.724 88.519 24.036ZM74.713 12.462H82.201C83.713 12.462 84.811 12.12 85.495 11.436C86.191 10.74 86.539 9.636 86.539 8.124V7.044C86.539 5.52 86.191 4.416 85.495 3.732C84.811 3.036 83.713 2.688 82.201 2.688H74.713V12.462ZM92.3449 23.91C91.7689 23.658 91.5949 23.238 91.8229 22.65L100.751 1.536C100.943 1.044 101.297 0.797999 101.813 0.797999H101.921C102.413 0.809999 102.761 1.056 102.965 1.536L111.893 22.65C112.133 23.238 111.965 23.658 111.389 23.91C110.801 24.15 110.393 23.982 110.165 23.406L107.771 17.736H95.9809L93.5869 23.406C93.3469 23.982 92.9329 24.15 92.3449 23.91ZM96.7549 15.846H106.979L101.867 3.786L96.7549 15.846Z" fill="white"/>
</svg>
