<?xml version="1.0" encoding="utf-8"?>
<!-- Generator: Adobe Illustrator 27.4.1, SVG Export Plug-In . SVG Version: 6.00 Build 0)  -->
<svg version="1.1" id="Layer_1" xmlns:sketch="http://www.bohemiancoding.com/sketch/ns"
	 xmlns="http://www.w3.org/2000/svg" xmlns:xlink="http://www.w3.org/1999/xlink" x="0px" y="0px" viewBox="0 0 800 800"
	 style="enable-background:new 0 0 800 800;" xml:space="preserve">
<style type="text/css">
	.st0{fill:#E5E5E5;}
</style>
<g id="Page-1">
	<path class="st0" d="M256.1,298.7c-53.8,0-87.3,45.2-87.3,97.5v1.4c-8.6,4.3-13,4.3-13,20.4c0,20.4,8.7,49.5,20.4,49.5
		c3,0,8.8,65.5,45.2,84.4c2.9,1.5,5.8,7.3,5.8,14.5c0,14.7-26.3,30.6-45.2,39.3C152.9,620.2,52.5,626,52.5,734.9h408.8
		c0-107.5-103.3-117.8-126.6-129.4c-18.9-8.7-46.5-24.7-46.5-40.7c0-7.2,2.9-10.2,5.8-11.6c34.9-20.4,43.6-81.5,46.5-81.5
		c11.6,0,18.9-27.6,18.9-47.9c0-16.1-2.9-18.9-11.6-23.3v-2.9C347.8,345.2,309.8,298.7,256.1,298.7L256.1,298.7z"/>
</g>
<g>
	<path class="st0" d="M551.3,169.1c-53.8,0-88.7,46.5-88.7,98.9v2.9c-8.7,4.4-11.6,7.2-11.6,23.3c0,20.2,7.2,47.9,18.9,47.9
		c3,0,10.2,61.1,45.2,81.5c2.9,1.4,5.8,4.4,5.8,11.6c0,16.1-27.7,32-46.5,40.7c-18.2,8.4-79.5,16.8-110,65.3
		C480,577.6,477.5,587.8,503.9,607h250.9c0-109-98.9-114.9-129.4-129.4c-19-8.8-45.2-24.8-45.2-39.3c0-7.3,2.9-13.2,5.8-14.5
		c36.3-19,43.6-84.4,46.5-84.4c11.6,0,20.4-29.1,20.4-49.5c0-15.9-4.3-15.9-13-20.4v-2.9C639.9,214.2,603.6,169.1,551.3,169.1
		L551.3,169.1z"/>
</g>
</svg>
