<?xml version="1.0" encoding="utf-8"?>
<!-- Generator: Adobe Illustrator 27.4.1, SVG Export Plug-In . SVG Version: 6.00 Build 0)  -->
<svg version="1.1" id="Layer_1" xmlns="http://www.w3.org/2000/svg" xmlns:xlink="http://www.w3.org/1999/xlink" x="0px" y="0px"
	 viewBox="0 0 113 25" style="enable-background:new 0 0 113 25;" xml:space="preserve">
<style type="text/css">
	.st0{fill:#FFFFFF;}
</style>
<g>
	<path class="st0" d="M21.3,0.8c-0.5,0-0.9,0.2-1.1,0.6l-8.7,13.4L2.7,1.4C2.5,1,2.1,0.8,1.6,0.8c-0.6,0-1,0.3-1,1V23
		c0,0.6,0.3,1,1,1c0.6,0,0.9-0.3,0.9-1V4.6l7.8,11.9c0.3,0.4,0.6,0.6,1,0.6c0.5,0,0.9-0.2,1.1-0.6l7.8-11.8V23c0,0.6,0.3,1,1,1
		c0.6,0,0.9-0.3,0.9-1V1.8C22.2,1.1,21.9,0.8,21.3,0.8z"/>
	<path class="st0" d="M112.2,22.6l-8.9-21.1c-0.2-0.5-0.6-0.7-1-0.7h-0.1c-0.5,0-0.9,0.2-1.1,0.7L95,15.8h-7.5c0,0,0,0,0,0
		c0.8-1,1.2-5.9,1.2-7.7V7c0-2.1-0.5-3.6-1.6-4.7c-1-1.1-2.6-1.6-4.6-1.6h-8.4c-0.6,0-1,0.3-1,4.4v10.6h-7.3L59.8,1.5
		c-0.2-0.5-0.6-0.7-1-0.7h-0.1c-0.5,0-0.9,0.2-1.1,0.7l-6.1,14.3h-7.8L37.7,1.5c-0.2-0.5-0.6-0.7-1-0.7h-0.1c-0.5,0-0.9,0.2-1.1,0.7
		l-8.9,21.1c-0.2,0.6-0.1,1,0.5,1.3c0.6,0.2,1,0.1,1.2-0.5l2.4-5.7h2.4h9.4l2.4,5.7c0.2,0.6,0.6,0.7,1.2,0.5
		c0.6-0.3,0.7-0.7,0.5-1.3l-2.1-4.9h6.2l-2.1,4.9c-0.2,0.6-0.1,1,0.5,1.3c0.6,0.2,1,0.1,1.2-0.5l2.4-5.7h11.8l2.4,5.7
		c0.2,0.6,0.6,0.7,1.2,0.5c0.6-0.3,0.7-0.7,0.5-1.3l-2.1-4.9h6.5v5.4c0,0.7,0.3,0.9,1,0.9c0.6,0,0.9-0.3,0.9-1v-5.2h6.6l5.9,5.9
		c0.2,0.3,0.4,0.4,0.6,0.5c0.2,0,0.5,0,0.7-0.2c0.5-0.3,0.6-0.7,0.3-1.3l-5.3-5h10.4l-2.1,4.9c-0.2,0.6-0.1,1,0.5,1.3
		c0.6,0.2,1,0.1,1.2-0.5l2.4-5.7h7.8h4l2.4,5.7c0.2,0.6,0.6,0.7,1.2,0.5C112.3,23.7,112.5,23.2,112.2,22.6z M33.2,15.8h-1.7
		l5.1-12.1l5.1,12.1H33.2z M53.6,15.8l5.1-12.1l5.1,12.1H53.6z M75,2.7h7.5c1.5,0,2.6,0.3,3.3,1c0.7,0.7,1,1.8,1,3.3v1.1
		c0,1.5-0.3,6.1-1,6.8c-0.5,0.5-1.3,0.8-2.3,1H75V2.7z M104.1,15.8h-7l5.1-12.1l5.1,12.1H104.1z"/>
</g>
</svg>
