<svg width="129" height="28" viewBox="0 0 129 28" fill="none" xmlns="http://www.w3.org/2000/svg">
<path d="M0.744 28V1.144H0.78L14.424 20.512L12.948 20.224L26.556 1.144H26.628V28H23.172V9.064L23.388 10.828L13.56 24.724H13.488L3.516 10.828L4.128 9.208V28H0.744ZM31.5153 28L42.8913 0.891999H43.1073L54.4473 28H50.4513L41.9553 6.364L44.4393 4.744L34.9353 28H31.5153ZM38.1753 18.136H47.8593L49.0113 21.16H37.1673L38.1753 18.136ZM56.7575 28L68.1335 0.891999H68.3495L79.6895 28H75.6935L67.1975 6.364L69.6815 4.744L60.1775 28H56.7575ZM63.4175 18.136H73.1015L74.2535 21.16H62.4095L63.4175 18.136ZM91.5037 1.972C92.8237 1.972 94.0357 2.152 95.1397 2.512C96.2677 2.848 97.2397 3.364 98.0557 4.06C98.8957 4.732 99.5437 5.572 99.9997 6.58C100.48 7.564 100.72 8.716 100.72 10.036C100.72 11.068 100.564 12.076 100.252 13.06C99.9637 14.044 99.4717 14.944 98.7757 15.76C98.0797 16.552 97.1677 17.2 96.0397 17.704C94.9357 18.184 93.5677 18.424 91.9357 18.424H88.0837V28H84.5917V1.972H91.5037ZM91.8637 15.076C92.8957 15.076 93.7477 14.92 94.4197 14.608C95.1157 14.296 95.6557 13.9 96.0397 13.42C96.4237 12.916 96.6997 12.376 96.8677 11.8C97.0357 11.224 97.1197 10.684 97.1197 10.18C97.1197 9.652 97.0237 9.112 96.8317 8.56C96.6637 7.984 96.3757 7.456 95.9677 6.976C95.5837 6.496 95.0677 6.1 94.4197 5.788C93.7957 5.476 93.0277 5.32 92.1157 5.32H88.0837V15.076H91.8637ZM96.1477 17.056L102.952 28H98.9197L92.0077 17.164L96.1477 17.056ZM105.73 28L117.106 0.891999H117.322L128.662 28H124.666L116.17 6.364L118.654 4.744L109.15 28H105.73ZM112.39 18.136H122.074L123.226 21.16H111.382L112.39 18.136Z" fill="white"/>
</svg>
