<?xml version="1.0" encoding="UTF-8"?>
<svg id="Layer_1" data-name="Layer 1" xmlns="http://www.w3.org/2000/svg" viewBox="0 0 113 25">
  <defs>
    <style>
      .cls-1 {
        fill: #fff;
      }
    </style>
  </defs>
  <path class="cls-1" d="m21.35.8c-.5,0-.88.21-1.13.63l-8.73,13.39L2.72,1.43c-.26-.42-.62-.63-1.08-.63-.64,0-.95.32-.95.95v21.29c0,.64.32.95.95.95s.94-.32.94-.95V4.62l7.79,11.88c.26.41.61.61,1.04.61.49,0,.87-.2,1.13-.61l7.76-11.82v18.37c0,.64.32.95.95.95s.94-.32.94-.95V1.75c0-.64-.28-.95-.85-.95Z"/>
  <path class="cls-1" d="m112.21,22.65L103.28,1.54c-.2-.48-.55-.73-1.04-.74h-.11c-.52,0-.87.25-1.06.74l-6.05,14.31h-7.52s0,0,0,0c.83-1.03,1.24-5.9,1.24-7.71v-1.08c0-2.05-.53-3.61-1.58-4.66-1.04-1.06-2.59-1.58-4.64-1.58h-8.42c-.64,0-.95.32-.95,4.4v10.65h-7.26l-6.05-14.31c-.2-.48-.55-.73-1.04-.74h-.11c-.52,0-.87.25-1.06.74l-6.05,14.31h-7.8l-6.05-14.31c-.2-.48-.55-.73-1.04-.74h-.11c-.52,0-.87.25-1.06.74l-8.93,21.11c-.23.59-.05,1.01.52,1.26.59.24,1,.07,1.24-.5l2.39-5.67h11.79l2.39,5.67c.23.58.64.74,1.22.5.58-.25.74-.67.5-1.26l-2.08-4.91h6.2l-2.08,4.91c-.23.59-.05,1.01.52,1.26.59.24,1,.07,1.24-.5l2.39-5.67h11.79l2.39,5.67c.23.58.64.74,1.22.5.58-.25.74-.67.5-1.26l-2.08-4.91h6.46v5.35c0,.72.32.91.95.91s.94-.32.94-.95v-5.25h6.61l5.9,5.95c.17.25.36.4.58.45.22.05.46,0,.72-.16.54-.31.64-.74.31-1.3l-5.3-5h10.38l-2.08,4.91c-.23.59-.05,1.01.52,1.26.59.24,1,.07,1.24-.5l2.39-5.67h11.79l2.39,5.67c.23.58.64.74,1.22.5.58-.25.74-.67.5-1.26Zm-79.05-6.8h-1.66l5.11-12.06,5.11,12.06h-8.57Zm20.46,0l5.11-12.06,5.11,12.06h-10.22Zm21.41-13.16h7.49c1.51,0,2.61.35,3.29,1.04.7.68,1.04,1.79,1.04,3.31v1.08c0,1.51-.35,6.06-1.04,6.76-.52.52-1.27.84-2.26.96h-8.53V2.69Zm29.05,13.16h-7l5.11-12.06,5.11,12.06h-3.22Z"/>
</svg>